<?xml version="1.0" encoding="utf-8"?>
<!-- Svg Vector Icons : http://www.onlinewebfonts.com/icon -->
<!DOCTYPE svg PUBLIC "-//W3C//DTD SVG 1.1//EN" "http://www.w3.org/Graphics/SVG/1.1/DTD/svg11.dtd">
<svg version="1.1" xmlns="http://www.w3.org/2000/svg" xmlns:xlink="http://www.w3.org/1999/xlink"
    x="0" y="0" viewBox="0 0 256 256" enable-background="new 0 0 256 256" xml:space="preserve"
    heigth="100px" width="100px">
<metadata> Svg Vector Icons : http://www.onlinewebfonts.com/icon </metadata>
<g><g><path fill="#f3f3f3" d="M89,96.7c0,22.6,18.3,40.8,40.8,40.8c22.6,0,40.8-18.3,40.8-40.8c0-22.6-18.3-40.8-40.8-40.8C107.3,55.8,89,74.1,89,96.7L89,96.7z"/><path fill="#f3f3f3" d="M131.2,137.5c-41.3,0-74.9,33.6-74.9,74.9c0,3.2,0.5,6.8,0.9,10c19.5,15,44,23.6,70.8,23.6c30,0,57.2-11.3,77.6-29.5c0-1.4,0-2.7,0-4.1C206.1,170.7,172.5,137.5,131.2,137.5z"/><path fill="#f3f3f3" d="M128,246c-65.4,0-118-53.1-118-118S63.1,10,128,10s118,53.1,118,118S193.4,246,128,246z M128,14.1c-62.6,0-113.5,50.8-113.5,113.4C14.5,190.2,65.4,241,128,241c62.6,0,113.5-50.8,113.5-113.5C241.5,64.9,190.6,14.1,128,14.1z"/></g></g>
</svg>