<svg width="18" height="18" viewBox="0 0 18 18" fill="none" xmlns="http://www.w3.org/2000/svg">
<path d="M8.45411 10.8703C8.21069 10.535 8.28539 10.0657 8.62092 9.82253L9.39621 9.26058C9.73144 9.0176 10.2001 9.09222 10.4433 9.42729L12.567 12.3532C12.8104 12.6886 12.7357 13.1578 12.4002 13.401L11.6249 13.9629C11.2896 14.2059 10.8209 14.1313 10.5777 13.7962L8.45411 10.8703ZM5.6162 13.401C5.28067 13.1578 5.20597 12.6886 5.44938 12.3532L7.57302 9.42729C7.81621 9.09222 8.28492 9.0176 8.62015 9.26058L9.39543 9.82253C9.73096 10.0657 9.80567 10.535 9.56225 10.8703L7.43862 13.7962C7.19542 14.1313 6.72671 14.2059 6.39148 13.9629L5.6162 13.401ZM4.48104 9.35946C4.08663 9.2316 3.87079 8.80797 3.9992 8.41373L4.29527 7.50475C4.42365 7.11059 4.84744 6.89534 5.24145 7.02415L8.67548 8.14681C9.06935 8.27558 9.28416 8.69937 9.15516 9.09317L8.86034 9.99312C8.73168 10.3859 8.3095 10.6005 7.91633 10.4731L4.48104 9.35946ZM7.78626 5.17712C7.78626 4.76291 8.12204 4.42712 8.53626 4.42712H9.4801C9.89431 4.42712 10.2301 4.76291 10.2301 5.17712V8.79184C10.2301 9.20605 9.89431 9.54184 9.4801 9.54184H8.53626C8.12204 9.54184 7.78626 9.20605 7.78626 8.79184V5.17712ZM8.8612 9.09317C8.7322 8.69937 8.947 8.27558 9.34088 8.14681L12.7749 7.02415C13.1689 6.89534 13.5927 7.11059 13.7211 7.50475L14.0172 8.41373C14.1456 8.80797 13.9297 9.2316 13.5353 9.35946L10.1 10.4731C9.70686 10.6005 9.28468 10.3859 9.15601 9.99312L8.8612 9.09317Z" fill="#FFB800"/>
</svg>
