<svg width="60" height="60" viewBox="0 0 60 60" fill="none" xmlns="http://www.w3.org/2000/svg">
<g id="&#208;&#161;&#208;&#145;&#208;&#159;_&#208;&#187;&#208;&#190;&#208;&#179;&#208;&#190;&#209;&#130;&#208;&#184;&#208;&#191; 1">
<path id="path66" d="M9.79883 16.2981L15.6759 26.803V33.2107L9.8057 43.695L9.79883 16.2981Z" fill="#5B57A2"/>
<path id="path68" d="M32.3613 22.9804L37.8684 19.605L49.1389 19.5945L32.3613 29.8726V22.9804Z" fill="#D90751"/>
<path id="path70" d="M32.3304 16.2362L32.3616 30.1444L26.4707 26.5248V5.73452L32.3308 16.2362H32.3304Z" fill="#FAB718"/>
<path id="path72" d="M49.1391 19.5946L37.8682 19.6051L32.3304 16.2362L26.4707 5.73452L49.1387 19.5946H49.1391Z" fill="#ED6F26"/>
<path id="path74" d="M32.3616 43.7533V37.0055L26.4707 33.4546L26.4739 54.2655L32.3616 43.7533Z" fill="#63B22F"/>
<path id="path76" d="M37.8578 40.4086L15.6755 26.803L9.79883 16.2981L49.1182 40.3949L37.8574 40.4086H37.8578Z" fill="#1487C9"/>
<path id="path78" d="M26.4727 54.2655L32.3595 43.7533L37.8528 40.4087L49.1132 40.395L26.4727 54.2655Z" fill="#017F36"/>
<path id="path80" d="M9.80078 43.695L26.5169 33.455L20.897 30.0068L15.671 33.2107L9.80078 43.695Z" fill="#984995"/>
</g>
</svg>
