<svg width="24" height="24" viewBox="0 0 24 24" fill="none" xmlns="http://www.w3.org/2000/svg">
<g id="Frame 229">
<path id="*" d="M11.2725 14.4937C10.9479 14.0465 11.0475 13.4209 11.4949 13.0966L12.5286 12.3474C12.9756 12.0234 13.6005 12.1229 13.9248 12.5697L16.7563 16.4708C17.0808 16.918 16.9812 17.5436 16.5339 17.8679L15.5002 18.6172C15.0532 18.9412 14.4282 18.8417 14.104 18.3949L11.2725 14.4937ZM7.48859 17.8679C7.04122 17.5436 6.94161 16.918 7.26617 16.4708L10.0977 12.5697C10.4219 12.1229 11.0469 12.0234 11.4939 12.3474L12.5276 13.0966C12.9749 13.4209 13.0745 14.0465 12.75 14.4937L9.91848 18.3949C9.59422 18.8417 8.96927 18.9412 8.5223 18.6172L7.48859 17.8679ZM5.97505 12.4792C5.44916 12.3087 5.16138 11.7439 5.33259 11.2182L5.72735 10.0063C5.89853 9.48073 6.46358 9.19372 6.98892 9.36547L11.5676 10.8624C12.0928 11.034 12.3792 11.5991 12.2072 12.1242L11.8141 13.3241C11.6426 13.8478 11.0797 14.134 10.5554 13.9641L5.97505 12.4792ZM10.382 6.90277C10.382 6.35049 10.8297 5.90277 11.382 5.90277H12.6405C13.1927 5.90277 13.6405 6.35049 13.6405 6.90277V11.7224C13.6405 12.2747 13.1927 12.7224 12.6405 12.7224H11.382C10.8297 12.7224 10.382 12.2747 10.382 11.7224V6.90277ZM11.8153 12.1242C11.6433 11.5991 11.9297 11.034 12.4548 10.8624L17.0335 9.36547C17.5589 9.19372 18.1239 9.48073 18.2951 10.0063L18.6899 11.2182C18.8611 11.7439 18.5733 12.3087 18.0474 12.4792L13.467 13.9641C12.9428 14.134 12.3799 13.8478 12.2083 13.3241L11.8153 12.1242Z" fill="#FFB800"/>
</g>
</svg>
