<svg width="24" height="24" viewBox="0 0 24 24" fill="none" xmlns="http://www.w3.org/2000/svg">
<g id="Frame 104">
<path id="path815" d="M18.9676 6.17012C17.6839 5.57515 16.3113 5.14276 14.8763 4.89655C14.7001 5.21218 14.4942 5.63671 14.3522 5.97443C12.8268 5.74718 11.3154 5.74718 9.818 5.97443C9.67607 5.63671 9.46551 5.21218 9.28769 4.89655C7.85115 5.14276 6.477 5.57674 5.19331 6.17327C2.6041 10.0492 1.90221 13.8288 2.25316 17.5548C3.97046 18.8252 5.63473 19.5969 7.27091 20.1019C7.67489 19.5511 8.03519 18.9657 8.34558 18.3486C7.75443 18.1261 7.18824 17.8515 6.65326 17.5327C6.79519 17.4286 6.93402 17.3196 7.06814 17.2076C10.3312 18.7195 13.8765 18.7195 17.1005 17.2076C17.2362 17.3196 17.375 17.4286 17.5154 17.5327C16.9789 17.8531 16.4111 18.1277 15.82 18.3502C16.1304 18.9657 16.4891 19.5527 16.8946 20.1035C18.5324 19.5985 20.1982 18.8268 21.9155 17.5548C22.3273 13.2354 21.2121 9.49052 18.9676 6.17012ZM8.79012 15.2634C7.81059 15.2634 7.0073 14.3575 7.0073 13.2544C7.0073 12.1513 7.79344 11.2438 8.79012 11.2438C9.78682 11.2438 10.5901 12.1497 10.5729 13.2544C10.5745 14.3575 9.78682 15.2634 8.79012 15.2634ZM15.3786 15.2634C14.399 15.2634 13.5957 14.3575 13.5957 13.2544C13.5957 12.1513 14.3819 11.2438 15.3786 11.2438C16.3752 11.2438 17.1785 12.1497 17.1614 13.2544C17.1614 14.3575 16.3752 15.2634 15.3786 15.2634Z" fill="white" fill-opacity="0.7"/>
</g>
</svg>
