<svg width="24" height="24" viewBox="0 0 24 24" fill="none" xmlns="http://www.w3.org/2000/svg">
<g id="Location Info in-lc" opacity="0.7">
<path id="Shape" fill-rule="evenodd" clip-rule="evenodd" d="M12 2C7.02944 2 3 6.02944 3 11C3 14.0264 4.80977 16.5918 6.89505 18.399L10.3365 21.3816C11.2912 22.209 12.7088 22.209 13.6635 21.3816L17.1049 18.399C19.1902 16.5918 21 14.0264 21 11C21 6.02944 16.9706 2 12 2ZM12 11C12.5523 11 13 11.4477 13 12V14C13 14.5523 12.5523 15 12 15C11.4477 15 11 14.5523 11 14V12C11 11.4477 11.4477 11 12 11ZM12 7C11.4477 7 11 7.44772 11 8C11 8.55228 11.4477 9 12 9C12.5523 9 13 8.55228 13 8C13 7.44772 12.5523 7 12 7Z" fill="white"/>
</g>
</svg>
