<svg width="24" height="24" viewBox="0 0 24 24" fill="none" xmlns="http://www.w3.org/2000/svg">
<g id="Star" opacity="0.7">
<path id="Shape" d="M10.6092 2.93817C11.1142 1.68642 12.8863 1.68642 13.3913 2.93817L15.3286 7.74029C15.3994 7.91572 15.5631 8.03619 15.7516 8.05157L20.6178 8.44863C21.9372 8.55629 22.4804 10.1957 21.4864 11.07L17.7939 14.3177C17.6573 14.4379 17.5967 14.6228 17.6358 14.8005L18.8166 20.1676C19.1116 21.5083 17.5999 22.508 16.4816 21.7118L12.2903 18.7275C12.1167 18.6039 11.8838 18.6039 11.7102 18.7275L7.5189 21.7118C6.40065 22.508 4.88896 21.5083 5.18392 20.1676L6.3647 14.8005C6.4038 14.6228 6.34324 14.4379 6.20658 14.3177L2.51395 11.07C1.51989 10.1957 2.06315 8.55629 3.38258 8.44863L8.24889 8.05157C8.43743 8.03619 8.60114 7.91572 8.67192 7.74029L10.6092 2.93817Z" fill="white"/>
</g>
</svg>
