<svg width="24" height="24" viewBox="0 0 24 24" fill="none" xmlns="http://www.w3.org/2000/svg">
<g id="tg">
<path id="Path-3" fill-rule="evenodd" clip-rule="evenodd" d="M2.40489 11.332C7.91173 8.94042 11.5777 7.3513 13.4186 6.58035C18.6579 4.39335 19.7593 4.01573 20.4673 4C20.6247 4 20.9708 4.03147 21.2068 4.22027C21.3956 4.37761 21.4428 4.58215 21.4743 4.73949C21.5058 4.89683 21.5372 5.22724 21.5058 5.47898C21.2225 8.46841 19.9953 15.7217 19.366 19.0573C19.0985 20.4733 18.5793 20.9453 18.0758 20.9925C16.9744 21.0869 16.1405 20.2688 15.0864 19.5765C13.4186 18.4908 12.4903 17.8143 10.8697 16.7444C8.99736 15.5172 10.2089 14.8406 11.2788 13.7392C11.562 13.456 16.3923 9.05056 16.4867 8.65721C16.5024 8.61001 16.5024 8.4212 16.3923 8.3268C16.2821 8.2324 16.1248 8.26387 15.9989 8.29533C15.8258 8.3268 13.1826 10.089 8.0376 13.5662C7.28238 14.0854 6.60582 14.3371 5.9922 14.3214C5.31565 14.3057 4.02548 13.9438 3.04998 13.6291C1.86994 13.2515 0.925915 13.0469 1.00458 12.3861C1.05179 12.04 1.5238 11.6938 2.40489 11.332Z" fill="white" fill-opacity="0.7"/>
</g>
</svg>
