<svg width="24" height="24" viewBox="0 0 24 24" fill="none" xmlns="http://www.w3.org/2000/svg">
<g id="VK">
<path id="Vector" fill-rule="evenodd" clip-rule="evenodd" d="M13.1261 18.166C13.1261 18.166 13.5399 18.1158 13.753 17.9027C13.9411 17.6895 13.9286 17.3134 13.9286 17.3134C13.9286 17.3134 13.9035 15.5204 14.7561 15.2446C15.5961 14.9938 16.6619 16.9874 17.8028 17.7522C18.6679 18.3289 19.3199 18.2036 19.3199 18.2036L22.3666 18.166C22.3666 18.166 23.959 18.0657 23.2067 16.8369C23.144 16.7366 22.7679 15.9342 20.9498 14.2666C19.0315 12.5239 19.2823 12.8122 21.5767 9.80313C22.981 7.97258 23.5452 6.84416 23.3697 6.36772C23.2067 5.91635 22.1786 6.04173 22.1786 6.04173H18.7306C18.7306 6.04173 18.4799 6.00412 18.2918 6.11696C18.1037 6.2298 17.9909 6.4931 17.9909 6.4931C17.9909 6.4931 17.4518 7.89735 16.7245 9.101C15.1949 11.6462 14.5931 11.7841 14.3423 11.6211C13.753 11.2575 13.9035 10.1417 13.9035 9.3643C13.9035 6.89432 14.2796 5.85366 13.1512 5.6029C12.7751 5.51514 12.5118 5.45245 11.5589 5.43991C10.3302 5.43991 9.30207 5.43991 8.71278 5.72828C8.3241 5.91635 8.02319 6.33011 8.21126 6.35518C8.43695 6.38026 8.951 6.48056 9.2143 6.8567C9.56536 7.32061 9.55283 8.3738 9.55283 8.3738C9.55283 8.3738 9.75343 11.2826 9.08892 11.6337C8.62502 11.8844 7.98558 11.3829 6.63148 9.07592C5.92935 7.89735 5.40276 6.58087 5.40276 6.58087C5.40276 6.58087 5.30245 6.33011 5.12692 6.20473C4.90124 6.05427 4.60033 6.00412 4.60033 6.00412L1.34045 6.0292C1.34045 6.0292 0.838933 6.0292 0.675939 6.24234C0.512945 6.43041 0.663401 6.81909 0.663401 6.81909C0.663401 6.81909 3.22115 12.6869 6.10488 15.6333C8.76293 18.3415 11.7595 18.166 11.7595 18.166H13.1261Z" fill="white" fill-opacity="0.7"/>
</g>
</svg>
